<?xml version="1.0" encoding="UTF-8"?>
<svg id="Layer_2" data-name="Layer 2" xmlns="http://www.w3.org/2000/svg" viewBox="0 0 292.4 112.35">
  <defs>
    <style>
      .cls-1 {
        isolation: isolate;
      }

      .cls-2 {
        fill: #0b2839;
      }

      .cls-3 {
        fill: #bab9a7;
      }

      .cls-4 {
        fill: #083a34;
      }
    </style>
  </defs>
  <g id="Shape_5" data-name="Shape 5" class="cls-1">
    <g>
      <path class="cls-4" d="M.64,0h38.88c.2,0,.4.2.6.6v12.78c0,.17-.2.37-.6.6H.64c-.2,0-.4-.2-.6-.6V.6C.05.4.25.2.64,0Z"/>
      <path class="cls-3" d="M.64,28.64h38.88c.2,0,.4.2.6.6v12.78c0,.2-.2.4-.6.6H.64c-.2,0-.4-.2-.6-.6v-12.78c0-.17.2-.36.6-.6Z"/>
      <path class="cls-4" d="M.64,57.52h38.88c.2,0,.4.18.6.55v12.78c0,.2-.2.4-.6.6H.64c-.2,0-.4-.2-.6-.6v-12.78c0-.17.2-.35.6-.55Z"/>
      <path class="cls-4" d="M87.94.2h13.12c.2,0,.4.2.6.6v70.05c0,.2-.2.4-.6.6h-48.22c-.2,0-.4-.2-.6-.6v-12.73c0-.17.2-.36.6-.6h34.55V.8c0-.2.18-.4.55-.6Z"/>
      <path class="cls-4" d="M117.96,0h38.88c.2,0,.4.2.6.6v12.78c0,.17-.2.37-.6.6h-38.88c-.2,0-.4-.2-.6-.6V.6c0-.2.2-.4.6-.6Z"/>
      <path class="cls-3" d="M117.96,28.64h38.88c.2,0,.4.2.6.6v12.78c0,.2-.2.4-.6.6h-38.88c-.2,0-.4-.2-.6-.6v-12.78c0-.17.2-.36.6-.6Z"/>
      <path class="cls-4" d="M117.96,57.52h38.88c.2,0,.4.18.6.55v12.78c0,.2-.2.4-.6.6h-38.88c-.2,0-.4-.2-.6-.6v-12.78c0-.17.2-.35.6-.55Z"/>
      <path class="cls-4" d="M176.52,27.84c-3.25-7.99-6.93-17.05-11.04-27.19,0-.2.13-.31.4-.35h13.87l.94.2c4.28,10.94,7.87,20.05,10.79,27.34h-14.96ZM221.36.3h13.87c.26.03.4.15.4.35-17.76,43.88-27.34,67.41-28.73,70.59-.23.13-.48.2-.75.2h-11.19c-.89,0-1.67-1.34-2.34-4.03-6.03-14.38-10.27-24.94-12.73-31.67v-.15h14.27c.46.3,2.52,5.1,6.16,14.42h.2c.4-.2,7.03-16.7,19.89-49.51l.94-.2Z"/>
      <path class="cls-3" d="M266.5.25c9.61,0,16.87,3.53,21.77,10.59,1.92,3.61,2.88,6.98,2.88,10.09,0,5.2-2.47,9.58-7.41,13.12,5.77,3.71,8.65,8.98,8.65,15.81,0,10.27-5.57,17.1-16.7,20.48-3.31.73-6.43,1.09-9.35,1.09-11.07,0-18.99-4.01-23.76-12.03-1.43-3.74-2.14-6.99-2.14-9.74,0-6.16,2.93-11.19,8.8-15.06v-.2c-4.67-3.55-7.01-8.04-7.01-13.47,0-9.31,4.97-15.73,14.91-19.24,2.98-.96,6.1-1.44,9.35-1.44ZM254.12,20.03v.7c0,4.31,2.82,7.31,8.45,9,.36,0,.55.3.55.89v8.45c0,.86-1.14,1.41-3.43,1.64-4.67,1.86-7.01,4.67-7.01,8.45v.5c0,5.27,3.96,8.52,11.88,9.74h1.79c7.42,0,11.98-2.58,13.67-7.76.1-.2.15-.5.15-.89v-2.34c0-4.28-3.48-7.14-10.44-8.6l-.15-.4v-9.15c0-.2,1.37-.75,4.13-1.64,3.48-1.92,5.22-4.56,5.22-7.9v-.7c0-4.61-3.41-7.49-10.24-8.65h-3.63c-5.04,0-8.63,2.29-10.79,6.86l-.15,1.79Z"/>
      <g>
        <path class="cls-2" d="M6.74,107.59H0v-20.82h6.74c6.37,0,10.77,4.49,10.77,10.35v.06c0,5.86-4.4,10.41-10.77,10.41ZM15.95,97.18c0-4.94-3.56-8.98-9.21-8.98H1.51v17.96h5.24c5.64,0,9.21-3.95,9.21-8.92v-.06Z"/>
        <path class="cls-2" d="M36.7,106.58c2.29,0,3.85-1.04,5.07-2.38l.98.89c-1.51,1.67-3.27,2.85-6.11,2.85-3.88,0-7.24-3.18-7.24-7.91v-.06c0-4.4,3.01-7.91,7.01-7.91s6.77,3.45,6.77,7.94v.06c0,.21,0,.3-.03.54h-12.24c.26,3.78,2.89,5.98,5.79,5.98ZM41.66,99.29c-.2-3.06-1.91-5.89-5.3-5.89-2.92,0-5.18,2.53-5.44,5.89h10.74Z"/>
        <path class="cls-2" d="M61.05,107.71h-1.22l-6.63-15.28h1.65l5.59,13.53,5.64-13.53h1.59l-6.63,15.28Z"/>
        <path class="cls-2" d="M85.08,106.58c2.29,0,3.85-1.04,5.07-2.38l.98.89c-1.51,1.67-3.27,2.85-6.11,2.85-3.88,0-7.24-3.18-7.24-7.91v-.06c0-4.4,3.01-7.91,7.01-7.91s6.77,3.45,6.77,7.94v.06c0,.21,0,.3-.03.54h-12.24c.26,3.78,2.89,5.98,5.79,5.98ZM90.03,99.29c-.2-3.06-1.91-5.89-5.3-5.89-2.92,0-5.18,2.53-5.44,5.89h10.74Z"/>
        <path class="cls-2" d="M104.01,107.59v-21.71h1.42v21.71h-1.42Z"/>
        <path class="cls-2" d="M125.66,107.95c-4.37,0-7.56-3.63-7.56-7.88v-.06c0-4.25,3.21-7.94,7.61-7.94s7.56,3.63,7.56,7.88v.06c0,4.25-3.21,7.94-7.61,7.94ZM131.74,100.01c0-3.66-2.66-6.57-6.08-6.57s-6.02,2.94-6.02,6.51v.06c0,3.66,2.66,6.57,6.08,6.57s6.02-2.94,6.02-6.51v-.06Z"/>
        <path class="cls-2" d="M153.25,107.95c-2.95,0-4.86-1.72-6.08-3.63v8.03h-1.42v-19.92h1.42v3.39c1.27-1.99,3.16-3.75,6.08-3.75,3.56,0,7.18,2.94,7.18,7.88v.06c0,4.94-3.62,7.94-7.18,7.94ZM158.89,100.01c0-3.98-2.69-6.54-5.79-6.54s-6.02,2.65-6.02,6.51v.06c0,3.9,2.95,6.51,6.02,6.51s5.79-2.41,5.79-6.48v-.06Z"/>
        <path class="cls-2" d="M193.86,107.59v-9.01c0-3.27-1.65-5.17-4.37-5.17-2.49,0-4.66,1.96-4.66,5.35v8.83h-1.42v-9.1c0-3.15-1.68-5.08-4.31-5.08s-4.72,2.38-4.72,5.44v8.74h-1.42v-15.17h1.42v2.71c.96-1.58,2.29-3.06,4.92-3.06s4.17,1.52,4.98,3.27c.96-1.7,2.55-3.27,5.33-3.27,3.5,0,5.67,2.53,5.67,6.33v9.19h-1.42Z"/>
        <path class="cls-2" d="M214.87,106.58c2.29,0,3.85-1.04,5.07-2.38l.98.89c-1.51,1.67-3.27,2.85-6.11,2.85-3.88,0-7.24-3.18-7.24-7.91v-.06c0-4.4,3.01-7.91,7.01-7.91s6.77,3.45,6.77,7.94v.06c0,.21,0,.3-.03.54h-12.24c.26,3.78,2.89,5.98,5.79,5.98ZM219.82,99.29c-.2-3.06-1.91-5.89-5.3-5.89-2.92,0-5.18,2.53-5.44,5.89h10.74Z"/>
        <path class="cls-2" d="M244.83,107.59v-9.01c0-3.12-1.71-5.17-4.69-5.17s-5.12,2.26-5.12,5.41v8.77h-1.42v-15.17h1.42v2.83c.98-1.78,2.63-3.18,5.33-3.18,3.73,0,5.91,2.62,5.91,6.24v9.28h-1.42Z"/>
        <path class="cls-2" d="M264.37,107.86c-2.29,0-4.14-1.28-4.14-4.16v-9.93h-2.14v-1.34h2.14v-4.85h1.42v4.85h5.18v1.34h-5.18v9.78c0,2.17,1.24,2.94,2.95,2.94.72,0,1.33-.15,2.17-.54v1.37c-.75.36-1.48.54-2.4.54Z"/>
        <path class="cls-2" d="M283.91,107.89c-2.14,0-4.49-.89-6.05-2.2l.84-1.16c1.62,1.28,3.42,1.99,5.3,1.99,2,0,3.56-1.13,3.56-2.88v-.06c0-1.78-1.85-2.44-3.91-3.03-2.4-.71-5.07-1.46-5.07-4.16v-.06c0-2.44,2-4.19,4.86-4.19,1.77,0,3.76.65,5.24,1.67l-.75,1.22c-1.36-.92-2.98-1.52-4.54-1.52-2.03,0-3.36,1.13-3.36,2.65v.06c0,1.7,2,2.32,4.11,2.94,2.37.68,4.86,1.58,4.86,4.25v.06c0,2.71-2.26,4.43-5.09,4.43Z"/>
      </g>
    </g>
  </g>
</svg>