<?xml version="1.0" encoding="UTF-8"?>
<svg id="Layer_2" data-name="Layer 2" xmlns="http://www.w3.org/2000/svg" viewBox="0 0 324.17 304.28">
  <g id="Layer_1-2" data-name="Layer 1">
    <g>
      <path d="M252.34,262.35h71.83s0-4.97,0-4.97h-119.69s0-18.98,0-18.98h119.68s0-4.98,0-4.98h-122.12c-1.53,0-2.57,1-2.57,2.47l-.02,23.99c.03,1.41,1.06,2.44,2.56,2.47h21.41s0,36.95,0,36.95l-42.93-.03V52.9s143.67-.02,143.67-.02v-4.97s-179.6,0-179.6,0V4.98s179.58,0,179.58,0V0s-181.94,0-181.94,0c-1.59,0-2.61.98-2.61,2.5v47.89c0,.7.24,1.33.7,1.78.43.43,1.03.66,1.67.66h.12s9.48.36,9.48.36v246.09s-151.56.02-151.56.02l.02,4.97h324.09l.04-4.98h-71.82s0-36.94,0-36.94ZM175.51,299.3h-18.98V52.88h18.98v246.42ZM247.36,299.3h-18.98v-36.94h18.98v36.94Z"/>
      <path d="M92.53,125.95c.91-14.73-2.65-29.3-10.86-44.54-1.81-3.36-2.35-3.5-3.61-3.45-1.02.05-1.6.37-3.26,3.45-8.24,15.31-11.8,29.88-10.86,44.55l.43,6.75-5.76-3.54c-4.92-3.03-8.73-4.75-12.73-5.73l-15.16-3.74c-.51-.1-1.88.35-2.28.75-.27.38-.65,1.73-.59,2.23l4.46,17.3c3.07,11.92,12.89,20.51,26.93,23.58l9.04,1.97-12,6.69,2.22,4.5,17.22-8.53.04,23.34H30.31c-1.41,0-2.48,1.06-2.48,2.47v23.99c0,1.4,1.05,2.43,2.5,2.45l9.71.15,5.75,57.58c.12,1.24,1.2,2.17,2.5,2.17h59.85c1.3,0,2.37-.94,2.49-2.17l5.75-57.58,9.72-.15c1.45-.02,2.5-1.06,2.5-2.45v-23.99c0-1.38-1.09-2.47-2.47-2.47h-45.43s.03-23.4.03-23.4l17.2,8.58,2.25-4.5-12.52-7.04,9.5-1.76c13.92-2.57,24.2-11.99,27.5-25.18l3.77-15.04c.24-.96-.13-2.39-.5-2.81-.38-.35-1.75-.79-2.29-.71l-15.64,3.93c-4.29,1.08-7.97,3.01-12.19,5.57l-5.72,3.48.41-6.69ZM63.4,158.8c-15.41-1.1-26.66-12.39-27.97-28.1l-.39-4.6,4.54.87c16.5,3.18,25.25,12.02,27.54,27.83l.62,4.3-4.34-.31ZM105.91,275.35h-55.37s-5.48-54.91-5.48-54.91h66.33l-5.48,54.91ZM123.65,196.49v18.98H32.81v-18.98h90.84ZM81.42,151.51l-3.2,7.16-3.2-7.16c-8.46-18.95-8.46-39.82,0-58.75l3.2-7.16,3.19,7.16c8.45,18.94,8.45,39.81,0,58.75ZM114.5,127.72l1.91-.3c1.3-.2,2.61.32,3.43,1.37,2.5,3.22-1.12,11.76-1.27,12.12-2.58,6.02-9.31,16.37-25.33,17.98l-4.21.42.37-4.21c1.27-14.44,11.12-25.19,25.09-27.38Z"/>
    </g>
  </g>
</svg>