<?xml version="1.0" encoding="UTF-8"?>
<svg id="Layer_2" data-name="Layer 2" xmlns="http://www.w3.org/2000/svg" viewBox="0 0 376.28 368.3">
  <g id="Layer_1-2" data-name="Layer 1">
    <g>
      <path d="M228.52,328.36c2.47,0,3.87-2.02,3.99-4.03v-25.25c-.67-6.19-5.41-10.93-11.59-11.6h-36.3s-.02-38.94-.02-38.94l47.91-.02v-8.95s-47.89,0-47.89,0v-22.96s47.9,0,47.9,0v-9.01s-47.88,0-47.88,0l-.02-15.96h-8.95s0,15.95,0,15.95H56.98s-.14-15.94-.14-15.94h-8.94s-.02,15.98-.02,15.98l-47.88-.24v9.15s47.89.05,47.89.05v22.97s-47.89,0-47.89,0v8.74l47.9.24v38.9s-37.16.23-37.16.23c-5.42.03-9.12,5.7-10.74,8.8v29.09c1.09,2.07,2.62,2.86,5.43,2.86h.04l26.48-.07v30.98s-31.95,0-31.95,0v8.72s216.55.22,216.55.22l.02-8.95h-16.01s0-30.94,0-30.94l27.96-.05ZM56.86,216.63h118.8v22.96H56.86v-22.96ZM56.86,248.53h118.8v38.96H56.86v-38.96ZM63.86,359.35h-22.95v-30.95h22.95v30.95ZM159.66,359.35h-86.81v-30.95h86.81v30.95ZM191.61,359.35h-22.95v-30.95h22.95v30.95ZM8.96,319.44v-23h214.61v23H8.96Z"/>
      <path d="M264.46,293.72l19.92-19.96-6.23-6.36-13.63,13.27-.1-64.05h44.18c34.36-.38,62.59-25.4,67.09-59.52,4.22-31.98-15.07-62.89-45.87-73.49l-2.77-.95.46-2.9c3.19-20.31-2.55-40.76-15.73-56.09C298.76,8.52,279.76-.15,259.63,0c-20.04.11-38.92,8.87-51.79,24.03-12.99,15.3-18.6,35.63-15.4,55.8l.46,2.92-2.81.94c-18.05,6.07-32.84,19.56-40.56,37-7.74,17.47-7.79,37.5-.15,54.97.07.15.2.46.94.67,1.58.45,4.02-.07,5.15-.85,1.86-1.27,2.24-3.42,1.12-6.39-6.15-16.33-4.88-34.37,3.48-49.48,8.38-15.13,22.97-25.79,40.04-29.24,1.01-.21,1.72-.67,2.21-1.48.87-1.42,1.03-3.87.4-6.08-5.05-17.78-1.05-36.67,10.99-51.81,10.92-13.74,28.19-21.95,46.18-21.97h.07c16.47,0,31.73,6.48,42.99,18.24,11.24,11.74,17.02,27.25,16.28,43.68l-.02.24-1.64,14.28c-.21,1.82.92,4.49,1.75,4.65,22.97,4.48,40.66,21.34,46.15,43.98,4.4,18.12.33,36.82-11.14,51.31-10.97,13.85-28.06,22.14-45.74,22.17l-44.14.08.03-33.69,36.4-36.39-6.3-6.36-30.04,29.91-.12-57.28-8.95.13-.06,81.06-21.62-21.37-6.34,6.32,27.99,28,.02,161.27-15.97.08.04,8.94h136.64s0-8.95,0-8.95h-111.73s0-65.63,0-65.63Z"/>
    </g>
  </g>
</svg>